<svg width="32" height="32" viewBox="0 0 32 32" fill="none" xmlns="http://www.w3.org/2000/svg">
<rect width="32" height="32" rx="4" fill="#417DA0"/>
<path fill-rule="evenodd" clip-rule="evenodd" d="M20.293 26.293L25.5254 21.0606C26.1109 20.4748 26.1109 19.5252 25.5254 18.9395L13.0605 6.47464C12.4767 5.89096 11.5312 5.88911 10.945 6.46909L5.70703 11.7071C5.31651 12.0976 4.68349 12.0976 4.29297 11.7071C4.0977 11.5118 4.00007 11.2559 4.00008 11C4.00007 10.7442 4.0977 10.4883 4.29297 10.293L9.52539 5.06058L9.534 5.052L9.56055 5.02545C10.2168 4.36916 11.107 4.00016 12.0352 4.00006H24.5C26.433 4.00006 28 5.56706 28 7.50006V19.9649C27.9999 20.893 27.6309 21.7832 26.9746 22.4395L26.9395 22.4746L21.707 27.7071V27.7071C21.3165 28.0976 20.6835 28.0976 20.293 27.7071C20.2181 27.6322 20.1576 27.5485 20.1114 27.4592C19.977 27.1992 19.9643 26.8926 20.0733 26.6238C20.1221 26.5034 20.1953 26.3906 20.293 26.293ZM26 16.586L15.4141 6.00006H24.5C25.3284 6.00006 26 6.67163 26 7.50006V16.586ZM14.707 17.293C14.3165 16.9025 13.6835 16.9025 13.293 17.293L5.29297 25.293C4.90247 25.6835 4.90245 26.3166 5.29297 26.7071C5.68349 27.0976 6.31651 27.0976 6.70703 26.7071L14.707 18.7071C15.0976 18.3166 15.0976 17.6835 14.707 17.293Z" fill="white"/>
</svg>
