<svg width="24" height="24" viewBox="0 0 24 24" fill="none" xmlns="http://www.w3.org/2000/svg">
<path d="M9.54297 13.043C9.93349 12.6524 10.5665 12.6524 10.957 13.043C11.3476 13.4335 11.3476 14.0665 10.957 14.457L1.70703 23.707C1.31651 24.0976 0.683493 24.0976 0.292969 23.707C-0.0975555 23.3165 -0.0975555 22.6835 0.292969 22.293L9.54297 13.043ZM20.5 0C22.433 3.86553e-07 24 1.567 24 3.5V15.9648C23.9999 16.893 23.6309 17.7832 22.9746 18.4395L17.707 23.707C17.658 23.756 17.6055 23.7992 17.5498 23.8359C17.4669 23.8906 17.3776 23.9316 17.2852 23.959C17.0994 24.0141 16.9006 24.014 16.7148 23.959C16.6224 23.9316 16.5331 23.8906 16.4502 23.8359C16.3945 23.7992 16.342 23.756 16.293 23.707C16.0977 23.5118 16 23.2559 16 23C16 22.9362 16.0064 22.8724 16.0186 22.8096C16.0246 22.7781 16.0319 22.7467 16.041 22.7158C16.0868 22.5611 16.1709 22.4151 16.293 22.293L21.5254 17.0605C22.111 16.4747 22.1111 15.5242 21.5254 14.9385L9.06055 2.47461C8.47481 1.88908 7.52519 1.88907 6.93945 2.47461L1.70703 7.70703C1.65804 7.75602 1.60547 7.79924 1.5498 7.83594C1.4669 7.89058 1.37759 7.9316 1.28516 7.95898C1.0994 8.01405 0.900597 8.01405 0.714844 7.95898C0.622409 7.9316 0.5331 7.89058 0.450195 7.83594C0.394528 7.79924 0.341961 7.75602 0.292969 7.70703C0.0977065 7.51177 -6.01579e-08 7.25588 0 7C2.96676e-05 6.9362 0.00639249 6.87243 0.0185547 6.80957C0.024638 6.77807 0.0318843 6.74673 0.0410156 6.71582C0.0867591 6.56115 0.170941 6.41506 0.292969 6.29297L5.56055 1.02539C6.21684 0.369103 7.10704 0.000100001 8.03516 0H20.5ZM22 12.585V3.5C22 2.67157 21.3284 2 20.5 2H11.4141L22 12.585Z" fill="#156389"/>
</svg>
